<svg t="1551422661379" class="icon" style="" viewBox="0 0 1024 1024" version="1.1" xmlns="http://www.w3.org/2000/svg" p-id="2564" xmlns:xlink="http://www.w3.org/1999/xlink" width="200" height="200"><defs><style type="text/css"></style></defs><path d="M717.3 181L524 69.4c-11.2-6.4-24.6-6.4-35.8 0L300.6 181c-9.8 7.3-14.6 20-12.4 32.5v221.8c-2.2 12.5 2.8 25.3 12.7 32.5l190.2 111.7c10.7 6.4 23.7 6.4 34.3 0l192.7-111.7c11-6.5 17.8-19 17.6-32.5V213.4c-0.1-13.5-7.1-26-18.4-32.4zM514.9 337.6c-1.7 1.9-4.1 3-6.6 3s-4.9-1.1-6.6-3l-173-101.1c-3.6-4-3.6-10.4 0-14.4l173-101.2c1.7-1.9 4.1-3 6.6-3s4.9 1.1 6.6 3l172.5 101.2c3.6 4 3.6 10.4 0 14.4L514.9 337.6z m174.3 94c-0.3 4.3-2.3 8.2-5.6 10.7l-138.1 84.1c-2.9 1.7-5 0-4.8-4.5l6.2-136.1c0.3-4.3 2.3-8.2 5.6-10.7L690.9 291c2.9-1.7 5 0 4.8 4.5l-6.5 136.1zM500.3 555.7L310.6 444.1c-10.6-6.4-23.5-6.4-34.1 0L82.7 555.7C71.3 562 64.2 574.5 64 588.2V810c0.5 13.8 8 26.2 19.6 32.5l193.9 111.7c11.3 6.4 24.8 6.4 36.1 0l186.6-111.7c9.6-7.4 14.2-20.1 11.7-32.5V588.2c2.6-12.3-2-25.1-11.6-32.5zM304.5 712.4c-1.7 1.9-4.1 3-6.6 3s-4.9-1.1-6.6-3l-173-101.2c-3.6-4-3.6-10.4 0-14.4l173-101.2c1.7-1.9 4.1-3 6.6-3s4.9 1.1 6.6 3L477 596.7c3.6 4 3.6 10.4 0 14.4L304.5 712.4z m174.5 94c-0.3 4.3-2.3 8.2-5.6 10.7l-138.2 84.1c-2.9 1.7-5 0-4.8-4.5l6.3-136c0.3-4.3 2.3-8.2 5.6-10.7l138.3-84.1c2.9-1.7 5 0 4.8 4.5l-6.4 136z m456.2-250.7L738.8 444.1c-11.7-6.4-25.6-6.4-37.3 0L519.3 555.7c-8.4 8.2-11.3 21.1-7.3 32.5V810c-4.2 11.2-1.6 24.1 6.5 32.5l187.4 111.7c10.1 6.4 22.7 6.4 32.8 0l198-111.7c12.4-5.9 21.2-18.1 23.2-32.5V588.2c-2.7-14.5-12-26.6-24.7-32.5zM726.6 712.4c-1.7 1.9-4.1 3-6.6 3s-4.9-1.1-6.6-3l-173-101.2c-3.6-4-3.6-10.4 0-14.4l173-101.2c1.7-1.9 4.1-3 6.6-3s4.9 1.1 6.6 3l172.5 101.2c3.6 4 3.6 10.4 0 14.4L726.6 712.4zM901 806.3c-0.3 4.3-2.3 8.2-5.6 10.7l-138.3 84.1c-2.9 1.7-5 0-4.8-4.5l6.3-136c0.3-4.3 2.3-8.2 5.6-10.7l138.3-84.1c2.9-1.7 5 0 4.8 4.5l-6.3 136z m0 0" p-id="2565"></path></svg>