<?xml version="1.0" standalone="no"?><!DOCTYPE svg PUBLIC "-//W3C//DTD SVG 1.1//EN" "http://www.w3.org/Graphics/SVG/1.1/DTD/svg11.dtd"><svg t="1564371322384" class="icon" viewBox="0 0 1024 1024" version="1.1" xmlns="http://www.w3.org/2000/svg" p-id="4819" xmlns:xlink="http://www.w3.org/1999/xlink" width="32" height="32"><defs><style type="text/css"></style></defs><path d="M998.159059 365.387294v555.068235a100.592941 100.592941 0 0 1-100.472471 100.502589H115.531294A100.592941 100.592941 0 0 1 15.058824 920.485647v-555.068235a100.592941 100.592941 0 0 1 100.47247-100.472471h208.896L98.183529 42.405647A24.756706 24.756706 0 0 1 132.879059 7.107765l262.174117 257.807059h232.990118L890.277647 7.137882a24.726588 24.726588 0 1 1 34.695529 35.297883l-226.273882 222.539294h199.017412a100.592941 100.592941 0 0 1 100.47247 100.442353zM677.044706 645.842824l-299.791059-173.086118v346.172235l299.791059-173.086117z" p-id="4820"></path></svg>