<?xml version="1.0" standalone="no"?><!DOCTYPE svg PUBLIC "-//W3C//DTD SVG 1.1//EN" "http://www.w3.org/Graphics/SVG/1.1/DTD/svg11.dtd"><svg t="1551753410555" class="icon" style="" viewBox="0 0 1024 1024" version="1.1" xmlns="http://www.w3.org/2000/svg" p-id="1629" xmlns:xlink="http://www.w3.org/1999/xlink" width="200" height="200"><defs><style type="text/css"></style></defs><path d="M864.2 128.7l0.1 0.1v767.5l-0.1 0.1H162.4l-0.1-0.1V128.8l0.1-0.1h701.8m0.1-64h-702c-35.2 0-64 28.8-64 64v767.7c0 35.2 28.8 64 64 64h702c35.2 0 64-28.8 64-64V128.7c0-35.2-28.8-64-64-64z" p-id="1630"></path><path d="M703.6 289.1H320.3c-17.7 0-32-14.3-32-32s14.3-32 32-32h383.3c17.7 0 32 14.3 32 32s-14.4 32-32 32zM703.6 417H320.3c-17.7 0-32-14.3-32-32s14.3-32 32-32h383.3c17.7 0 32 14.3 32 32s-14.4 32-32 32zM703.6 545.3H320.3c-17.7 0-32-14.3-32-32s14.3-32 32-32h383.3c17.7 0 32 14.3 32 32s-14.4 32-32 32zM703.6 673.2H320.3c-17.7 0-32-14.3-32-32s14.3-32 32-32h383.3c17.7 0 32 14.3 32 32s-14.4 32-32 32zM703.6 800H320.3c-17.7 0-32-14.3-32-32s14.3-32 32-32h383.3c17.7 0 32 14.3 32 32s-14.4 32-32 32z" p-id="1631"></path></svg>