<?xml version="1.0" standalone="no"?><!DOCTYPE svg PUBLIC "-//W3C//DTD SVG 1.1//EN" "http://www.w3.org/Graphics/SVG/1.1/DTD/svg11.dtd"><svg t="1551755586237" class="icon" style="" viewBox="0 0 1024 1024" version="1.1" xmlns="http://www.w3.org/2000/svg" p-id="2484" xmlns:xlink="http://www.w3.org/1999/xlink" width="200" height="200"><defs><style type="text/css"></style></defs><path d="M847.219 624.397H302.573c-41.86 0-77.467 26.747-90.639 64.076h-69.551V560.318c0-17.676 14.359-32.038 32.038-32.038h280.771c17.58 19.648 43.176 32.038 71.646 32.038h128.151c53.065 0 96.117-43.02 96.117-96.113V336.054c0-53.094-43.052-96.113-96.117-96.113h-96.114v-32.038c0-53.094-43.05-96.113-96.113-96.113h-96.114c-53.062 0-96.113 43.02-96.113 96.113v96.113c0 53.094 43.052 96.114 96.113 96.114h64.076v64.075H174.421c-53.062 0-96.113 43.02-96.113 96.113v192.23h128.151v160.189h736.874V720.512c-0.001-53.094-43.053-96.115-96.114-96.115zM366.647 336.054c-17.675 0-32.037-14.374-32.037-32.038v-96.113c0-17.66 14.362-32.038 32.037-32.038h96.114c17.68 0 32.038 14.377 32.038 32.038v37.922c-37.231 13.25-64.076 48.432-64.076 90.229h-64.076z" p-id="2485"></path></svg>