<?xml version="1.0" standalone="no"?><!DOCTYPE svg PUBLIC "-//W3C//DTD SVG 1.1//EN" "http://www.w3.org/Graphics/SVG/1.1/DTD/svg11.dtd"><svg t="1555483136380" class="icon" style="" viewBox="0 0 1024 1024" version="1.1" xmlns="http://www.w3.org/2000/svg" p-id="1309" xmlns:xlink="http://www.w3.org/1999/xlink" width="200" height="200"><defs><style type="text/css"></style></defs><path d="M892.416 335.872c0-19.456-10.752-36.352-27.136-45.056l-329.728-175.616c-7.168-3.584-14.848-5.632-23.552-5.632s-16.384 2.048-23.552 5.632L159.744 289.792c-16.896 8.192-28.672 25.6-28.672 46.08s11.776 37.376 28.672 46.08l327.168 174.592 0.512 0.512h0.512c7.168 3.584 14.848 5.632 23.552 5.632s16.384-2.048 23.552-5.632h0.512c0.512 0 0.512-0.512 0.512-0.512l328.704-175.104c16.896-9.216 27.648-26.112 27.648-45.568z m-98.304 33.28l-263.68 134.656s-0.512 0-0.512 0.512h-0.512c-5.12 2.56-11.264 4.096-17.408 4.096-6.144 0-12.288-1.536-17.408-4.096h-0.512s-0.512 0-0.512-0.512L225.792 369.664C213.504 363.52 184.32 350.72 184.32 335.872s29.184-27.648 41.472-33.792l268.288-134.656c5.12-2.56 11.264-4.096 17.408-4.096 6.144 0 12.288 1.536 17.408 4.096l264.192 135.168c11.776 6.656 40.448 18.944 40.448 33.28s-27.648 27.136-39.424 33.28z" fill="#ffffff" p-id="1310"></path><path d="M892.416 515.072c0-19.968-11.776-37.376-28.672-46.08l-28.672-15.36c-3.072-1.536-6.144-2.56-9.216-2.56-11.264 0-20.48 9.216-20.48 20.48 0 7.68 4.096 14.336 10.24 17.92 11.776 6.656 24.064 15.36 24.064 25.088 0 14.848-29.184 27.648-41.472 33.792l-267.776 134.144s-0.512 0-0.512 0.512h-0.512c-5.12 2.56-11.264 4.096-17.408 4.096-6.144 0-12.288-1.536-17.408-4.096h-0.512-0.512l-267.776-134.144c-12.288-6.144-41.472-18.944-41.472-33.792 0-9.728 11.776-18.432 24.064-25.088 6.144-3.584 10.24-10.24 10.24-17.92 0-11.264-9.216-20.48-20.48-20.48-3.584 0-6.656 1.024-9.216 2.56l-28.672 15.36c-16.896 8.192-28.672 25.6-28.672 46.08s11.776 37.376 28.672 46.08l327.168 174.592 0.512 0.512h0.512c7.168 3.584 14.848 5.632 23.04 5.632s16.384-2.048 23.04-5.632h0.512c0.512 0 0.512-0.512 0.512-0.512l327.168-174.592c17.92-9.216 29.696-26.624 29.696-46.592z" fill="#ffffff" p-id="1311"></path><path d="M892.416 694.784c0-19.968-11.776-37.376-28.672-46.08l-28.672-15.36c-3.072-1.536-6.144-2.56-9.216-2.56-11.264 0-20.48 9.216-20.48 20.48 0 7.68 4.096 14.336 10.24 17.92 11.776 6.656 24.064 15.36 24.064 25.088 0 14.848-29.184 27.648-41.472 33.792l-267.776 134.144s-0.512 0-0.512 0.512h-0.512c-5.12 2.56-11.264 4.096-17.408 4.096-6.144 0-12.288-1.536-17.408-4.096h-0.512-0.512l-267.776-134.144c-12.288-6.144-41.472-18.944-41.472-33.792 0-9.728 11.776-18.432 24.064-25.088 6.144-3.584 10.24-10.24 10.24-17.92 0-11.264-9.216-20.48-20.48-20.48-3.584 0-6.656 1.024-9.216 2.56l-28.672 15.36c-16.896 8.192-28.672 25.6-28.672 46.08s11.776 37.376 28.672 46.08l327.168 174.592 0.512 0.512h0.512c7.168 3.584 14.848 5.632 23.04 5.632s16.384-2.048 23.04-5.632h0.512c0.512 0 0.512-0.512 0.512-0.512l327.168-174.592c17.92-8.704 29.696-26.112 29.696-46.592z" fill="#ffffff" p-id="1312"></path></svg>